# xmcd CD database file
#
# Track frame offsets:
#	183
#	17628
#	35853
#	56150
#	68923
#	97330
#	108528
#	132128
#	161908
#	181310
#	207245
#
# Disc length: 3100 seconds
#
# Revision: 2
# Processed by: cddbd v1.5.2PL0 Copyright (c) Steve Scherf et al.
# Submitted via: CDex 1.70beta2
#
DISCID=a60c1a0b
DTITLE=Kenny Drew and NHOP - Duo 2
DYEAR=1990
DGENRE=Jazz
TTITLE0=Jeg Gik Mig Over So Og Land
TTITLE1=Largo
TTITLE2=My Little Suede Shoes
TTITLE3=Trubbel
TTITLE4=Bluesology
TTITLE5=That's All
TTITLE6=You Don't Know What Love Is
TTITLE7=Viking's Blues
TTITLE8=A Child Is Born
TTITLE9=It Might As Well Be Spring
TTITLE10=My Shining Hour
EXTD=YEAR: 1990
EXTT0=
EXTT1=
EXTT2=
EXTT3=
EXTT4=
EXTT5=
EXTT6=
EXTT7=
EXTT8=
EXTT9=
EXTT10=
PLAYORDER=
